<?xml version="1.0" encoding="utf-8"?>
<svg version="1.1" id="Layer_1" xmlns="http://www.w3.org/2000/svg" xmlns:xlink="http://www.w3.org/1999/xlink" x="0px" y="0px"
	 viewBox="0 0 265 265" style="enable-background:new 0 0 265 265;" xml:space="preserve">
<style type="text/css">
	.st0{fill:#2E3192;}
	.st1{fill:#FFFFFF;stroke:#FFFFFF;stroke-width:7;stroke-miterlimit:10;}
	.st2{fill:#F2F2F2;stroke:#F2F2F2;stroke-width:7;stroke-miterlimit:10;}
</style>
<g>
	<circle class="st0" cx="132.5" cy="132.5" r="132"/>
	<path d="M132.5,1c35.1,0,68.1,13.7,93,38.5c24.8,24.8,38.5,57.9,38.5,93s-13.7,68.1-38.5,93c-24.8,24.8-57.9,38.5-93,38.5
		c-35.1,0-68.1-13.7-93-38.5S1,167.6,1,132.5s13.7-68.1,38.5-93S97.4,1,132.5,1 M132.5,0C59.3,0,0,59.3,0,132.5S59.3,265,132.5,265
		S265,205.7,265,132.5S205.7,0,132.5,0L132.5,0z"/>
</g>
<g>
	<path class="st1" d="M211.3,71.5l-5.8-3V42.4c0-1.4-1.2-2.8-2.7-2.8c0,0,0,0-0.1,0H67.2c-0.9,0.2-2,0.2-2.6,1.8
		c-0.1,0.3-0.2,0.6-0.2,1v26.1l-6.1,3.2c-0.9,0.5-1.4,1.4-1.5,2.4c0,0,0,0.1,0,0.1V210c0,7.9,6.4,14.4,14.4,14.4h127.6
		c7.9,0,14.4-6.4,14.4-14.4V74.4c0-0.1,0.1-0.2,0.1-0.3C213.2,72.9,212.4,71.9,211.3,71.5z M180.8,55.7l19.1-8.9v18.8L180.8,55.7z
		 M198.9,71.4h-21.6V60.1L198.9,71.4z M190,45.2L173.3,53c-1,0.4-1.6,1.5-1.6,2.5c0,0,0,0,0,0c0,0,0,0,0,0v15.8H98.3V55.5
		c0,0,0,0,0,0c-0.1-0.3,0-1.8-1.6-2.5l-16.7-7.8H190z M70,46.8l19.1,8.9L70,65.6V46.8z M92.7,60.1v11.2H71.1L92.7,60.1z M207.5,210
		c0,4.8-3.9,8.8-8.8,8.8H71.2c-4.8,0-8.8-3.9-8.8-8.8V77c34.9,0,110.3,0,145.1,0L207.5,210L207.5,210z"/>
	<path class="st2" d="M94.7,113.5c2.6,30.6,19.6,54.4,40.2,54.4s37.7-23.8,40.2-54.4c3.4-1.1,5.9-4.2,5.9-8c0-4.6-3.8-8.4-8.4-8.4
		s-8.4,3.8-8.4,8.4c0,3.5,2.2,6.5,5.2,7.8c-2.3,27.6-16.9,49-34.6,49s-32.3-21.4-34.6-49c3.1-1.3,5.2-4.3,5.2-7.8
		c0-4.6-3.8-8.4-8.4-8.4c-4.6,0-8.4,3.8-8.4,8.4C88.8,109.3,91.3,112.5,94.7,113.5z"/>
	<path class="st2" d="M74.6,190.7c1.2,0,2.1-0.9,2.1-2.1v-10.7c0-1.2-0.9-2.1-2.1-2.1s-2.1,0.9-2.1,2.1v10.7
		C72.5,189.8,73.5,190.7,74.6,190.7z"/>
	<path class="st2" d="M74.6,165.1c1.2,0,2.1-0.9,2.1-2.1v-12.3c0-1.2-0.9-2.1-2.1-2.1s-2.1,0.9-2.1,2.1V163
		C72.5,164.1,73.5,165.1,74.6,165.1z"/>
</g>
</svg>
